<?xml version="1.0" encoding="utf-8"?>
<!-- Generator: Adobe Illustrator 16.0.0, SVG Export Plug-In . SVG Version: 6.00 Build 0)  -->
<!DOCTYPE svg PUBLIC "-//W3C//DTD SVG 1.1//EN" "http://www.w3.org/Graphics/SVG/1.1/DTD/svg11.dtd">
<svg version="1.1" id="Calque_1" xmlns="http://www.w3.org/2000/svg" xmlns:xlink="http://www.w3.org/1999/xlink" x="0px" y="0px"
	 width="395px" height="102px" viewBox="0 0 395 102" style="enable-background:new 0 0 395 102;" xml:space="preserve">
<g>
	<g>
		<path d="M31.4,44.1c-5.9-4.9-11-8.5-11-17.1c0-5.3,2.5-8.8,6-9.2c4.3-0.5,5.8,2.9,5.8,10.7v10.8c3.2-0.3,6.3-0.7,9.5-1V8
			c-3.2,0.3-6.3,0.7-9.5,1v4.5c-2.6-3.5-6.1-5-11-4.4c-9,1-15.5,9.3-15.5,22c0,16.1,7.9,20.9,18.1,29.6c5.2,4.4,6.6,8,6.6,13.6
			c0,7.2-1.9,10.8-6.6,11.3c-4.8,0.5-7.2-2.4-7.2-8.9V63.6C13,64,9.6,64.5,6.1,64.9v31.3c3.4-0.4,6.9-0.8,10.3-1.3v-4.7
			c2.8,3.8,6.3,5,11.9,4.4C38.4,93.6,45,84.6,45,68.9C45,56.2,40.1,51.4,31.4,44.1"/>
		<path d="M7,101h2l1.9-1.9v-1.2c-0.3,0-0.5,0.1-0.8,0.1L7,101z"/>
	</g>
	<polygon points="0.6,69.7 0.6,71.3 2.1,69.7 	"/>
	<g>
		<path d="M21.8,71.9c0.3,0.4,0.5,0.8,0.8,1.2l4.5-4.5c-0.2-0.4-0.4-0.9-0.6-1.3L21.8,71.9z"/>
		<path d="M7.8,57.3c0.3,0.3,0.6,0.7,0.9,1l4.1-4.1c-0.3-0.3-0.7-0.7-1-1L7.8,57.3z"/>
		<path d="M27.9,77.4c0.1-0.6,0.1-1.3,0.1-2.1l-3.5,3.5c0.1,0.6,0.1,1.2,0.2,1.8L27.9,77.4z"/>
		<path d="M19.7,69.2c0.3,0.4,0.6,0.7,0.9,1.1l4.7-4.7c-0.3-0.3-0.6-0.7-0.9-1.1L19.7,69.2z"/>
		<path d="M23.5,75c0.2,0.5,0.4,1,0.5,1.5l3.9-3.9c0-0.6-0.1-1.2-0.2-1.7L23.5,75z"/>
		<path d="M17.9,58.7c-0.4-0.3-0.7-0.6-1.1-0.9l-4.1,4.1c0.7-0.1,1.5-0.2,2.2-0.3L17.9,58.7z"/>
		<path d="M10.1,59.8c0.3,0.3,0.6,0.7,1,1l4.3-4.3c-0.3-0.3-0.7-0.6-1-0.9L10.1,59.8z"/>
		<path d="M18.6,60.8l0,0.4v1.5l1.8-1.8c-0.4-0.3-0.7-0.6-1.1-0.9L18.6,60.8z"/>
		<path d="M22,62.2l-3.4,3.4v2l4.4-4.4c-0.3-0.3-0.5-0.5-0.8-0.8C22.1,62.3,22.1,62.2,22,62.2"/>
		<path d="M29.9,30.4l-3.4,3.4c0,0.6,0,1.2,0,1.9l3.3-3.3V30.4z"/>
		<path d="M26.6,19.9c-0.2,0-0.4,0.1-0.6,0.1l-0.2,0.2l-2.5,2.5c-0.3,0.7-0.5,1.6-0.7,2.5c0,0,0.1,0,0.1,0l5.2-5.2
			c-0.2-0.1-0.5-0.1-0.8-0.1C26.9,19.9,26.7,19.9,26.6,19.9"/>
		<path d="M29.9,27.6c0-0.7,0-1.3-0.1-1.9L26,29.6c0.1,0.5,0.2,1,0.3,1.6L29.9,27.6z"/>
		<path d="M29.5,23.2c-0.1-0.6-0.2-1.1-0.4-1.6l-4.7,4.7c0.3,0.3,0.6,0.7,0.8,1.2L29.5,23.2z"/>
		<path d="M29.9,37.2v-2l-2.5,2.5c0.3,0.3,0.6,0.6,1,1L29.9,37.2z"/>
	</g>
	<polygon points="0.6,88.4 0.6,90.3 4,86.9 4,85 	"/>
	<polygon points="0.6,97.9 0.6,99.9 4,96.5 4,96.2 4,94.5 	"/>
	<g>
		<path d="M3.4,33L0,36.5c0,0.6,0,1.3,0.1,1.9l3.5-3.5C3.5,34.3,3.5,33.7,3.4,33"/>
		<path d="M4.7,98.6L2.2,101h2l2.7-2.7c-0.2,0-0.3,0-0.5,0.1L4.7,98.6z"/>
		<path d="M3.8,37.4L0.3,41c0.1,0.6,0.2,1.1,0.3,1.7l3.6-3.6C4,38.5,3.9,38,3.8,37.4"/>
		<path d="M25.2,101.9c0.9-0.1,1.7-0.3,2.5-0.6l5.7-5.7c-0.9,0.4-1.8,0.7-2.8,0.9L25.2,101.9z"/>
		<path d="M25.8,97c-0.2,0-0.3,0-0.4,0l-5,5c0.6,0.1,1.2,0.1,1.8,0.1l5.2-5.2C26.9,96.9,26.3,97,25.8,97"/>
		<path d="M21.3,96.3l-4.7,4.7c0.5,0.2,1,0.4,1.5,0.5l4.8-4.8C22.3,96.6,21.8,96.5,21.3,96.3"/>
		<path d="M16.7,97.1c-0.4,0-0.8,0.1-1.2,0.1l-2,2c0.4,0.3,0.7,0.6,1.1,0.8l3.1-3.1L16.7,97.1z"/>
		<path d="M2.2,48.6c0.2,0.5,0.4,0.9,0.6,1.4l3.8-3.8c-0.2-0.4-0.4-0.9-0.6-1.3L2.2,48.6z"/>
		<path d="M5.7,54.7c0.3,0.4,0.5,0.8,0.8,1.1l4-4c-0.3-0.4-0.6-0.7-0.9-1.1L5.7,54.7z"/>
		<path d="M1.5,46.5l3.7-3.7c-0.2-0.5-0.3-1-0.5-1.5L1.1,45C1.2,45.5,1.3,46,1.5,46.5"/>
		<path d="M3.8,51.8C4,52.2,4.3,52.6,4.5,53l3.9-3.9c-0.3-0.4-0.5-0.8-0.8-1.2L3.8,51.8z"/>
	</g>
	<polygon points="0.6,74.1 0.6,76 4,72.6 4,70.7 	"/>
	<g>
		<path d="M4.4,22.5l-2.3,2.3c-0.4,1-0.8,2-1.1,3.1L3.9,25C4,24.1,4.2,23.3,4.4,22.5"/>
	</g>
	<polygon points="0.6,78.8 0.6,80.8 4,77.4 4,75.4 	"/>
	<g>
		<path d="M3.5,28.2l-3.2,3.2c-0.1,0.7-0.1,1.4-0.1,2.1l3.3-3.3C3.4,29.6,3.4,28.9,3.5,28.2"/>
	</g>
	<polygon points="0.6,93.2 0.6,95.1 4,91.7 4,89.8 	"/>
	<polygon points="0.6,83.6 0.6,85.6 4,82.2 4,80.2 	"/>
	<g>
		<path d="M85.8,80.7c-3.3,0.2-6.5,0.5-9.8,0.7V50.1c5.1-0.4,10.3-0.8,15.4-1.1V38.6C86.3,39,81.2,39.3,76,39.8V12.6
			c3.3-0.3,6.7-0.5,10-0.8v20.4c3.5-0.3,7.1-0.5,10.6-0.7v-28c-13.7,0.9-27.4,2-41.1,3.3v7.7c1.4-0.1,2.7-0.3,4.1-0.4v68.9
			c-1.4,0.1-2.7,0.2-4.1,0.4v7.7c14.1-1.3,28.2-2.4,42.2-3.3V56.7c-4,0.3-8,0.5-12,0.8V80.7z"/>
	</g>
	<polygon points="55.2,16.8 50.1,22 50.1,23.9 57.2,16.8 	"/>
	<polygon points="50.5,16.8 50.1,17.2 50.1,19.2 52.4,16.8 	"/>
	<polygon points="74.1,93.4 66.5,101 68.4,101 76.1,93.4 	"/>
	<polygon points="70.6,93.4 70.6,92.1 61.7,101 63.7,101 71.3,93.4 	"/>
	<polygon points="92.3,101 92.4,100.9 92.4,99 90.3,101 	"/>
	<polygon points="87.5,101 92.4,96.2 92.4,94.2 85.5,101 	"/>
	<g>
		<path d="M80.8,101h2l9.6-9.6v-1.3c-0.2,0-0.5,0-0.7,0.1L80.8,101z"/>
	</g>
	<polygon points="50.3,93.4 50.1,93.5 50.1,95.5 52.2,93.4 	"/>
	<g>
		<path d="M80.4,78.9c0.2,0,0.5,0,0.7-0.1l2.6-2.6v-2l-3.3,3.3V78.9z"/>
	</g>
	<polygon points="57.5,28.9 54.2,32.2 54.2,34.1 57.5,30.9 	"/>
	<polygon points="83.6,55.5 85.5,55.3 86,54.8 86,52.8 78.2,60.7 78.2,62 78.8,62 83.6,57.2 	"/>
	<polygon points="57.5,24.1 54.2,27.4 54.2,29.4 57.5,26.1 	"/>
	<polygon points="83.6,60 81.6,62 83.5,62 83.6,62 	"/>
	<g>
		<path d="M78.2,57.9l6.2-6.2H84c-0.6,0-1.2,0.1-1.8,0.1l-4.1,4.1V57.9z"/>
	</g>
	<polygon points="83.6,70.2 83,70.2 80.4,72.8 80.4,74.8 83.6,71.5 	"/>
	<polygon points="78.2,17.7 78.2,19.7 81,16.8 79.1,16.8 	"/>
	<polygon points="80.6,31.6 83.9,28.3 83.9,26.4 80.6,29.6 	"/>
	<polygon points="83.9,32.2 83.9,31.2 80.6,34.4 80.6,36.4 83.9,33.1 	"/>
	<g>
		<path d="M78.2,53.1l1-1c-0.3,0-0.7,0-1,0.1V53.1z"/>
	</g>
	<polygon points="83.9,21.6 80.6,24.9 80.6,26.8 83.9,23.6 	"/>
	<g>
		<path d="M90,36.5l1.2-1.2V34c-0.2,0-0.4,0-0.7,0l-2.7,2.7C88.6,36.6,89.3,36.6,90,36.5"/>
	</g>
	<polygon points="78.2,24.5 83.9,18.8 83.9,16.8 78.2,22.5 	"/>
	<g>
		<path d="M87.5,34.2c-0.4,0-0.9,0.1-1.3,0.1l-0.8,0.1l-2.7,2.7c0.7-0.1,1.4-0.1,2.1-0.2L87.5,34.2z"/>
	</g>
	<polygon points="57.5,57.5 54.2,60.8 54.2,62.7 57.5,59.5 	"/>
	<g>
		<path d="M55.8,93l-0.4,0l-5.3,5.3v2l7.4-7.4C56.9,92.9,56.3,92.9,55.8,93"/>
		<path d="M60.6,92.6l-8.4,8.4h2l8.6-8.6C62,92.5,61.3,92.5,60.6,92.6"/>
	</g>
	<polygon points="57.5,19.4 52.3,24.5 54.2,24.5 54.2,24.6 57.5,21.3 	"/>
	<g>
		<path d="M65.8,92.1l-8.9,8.9h2l9.1-9.1C67.2,92,66.5,92.1,65.8,92.1"/>
		<path d="M86.5,90.5L76,101h2l10.7-10.7C87.9,90.4,87.2,90.4,86.5,90.5"/>
	</g>
	<polygon points="54.2,81.1 55,81.1 57.5,78.6 57.5,76.6 54.2,79.9 	"/>
	<g>
		<path d="M81.4,90.9l-1,1v1.5h-1.5l-7.7,7.7h2l10.3-10.3C82.8,90.8,82.1,90.8,81.4,90.9"/>
	</g>
	<polygon points="57.5,67.1 54.2,70.3 54.2,72.3 57.5,69 	"/>
	<polygon points="57.5,71.8 54.2,75.1 54.2,77.1 57.5,73.8 	"/>
	<polygon points="57.5,38.4 54.2,41.7 54.2,43.7 57.5,40.4 	"/>
	<polygon points="57.5,48 54.2,51.2 54.2,53.2 57.5,49.9 	"/>
	<polygon points="57.5,43.2 54.2,46.5 54.2,48.4 57.5,45.2 	"/>
	<polygon points="57.5,33.7 54.2,36.9 54.2,38.9 57.5,35.6 	"/>
	<polygon points="57.5,62.3 54.2,65.6 54.2,67.5 57.5,64.2 	"/>
	<polygon points="57.5,52.7 54.2,56 54.2,58 57.5,54.7 	"/>
	<g>
		<path d="M140.9,34.4c0,6.7-1.9,8.5-9.5,8.9V8.7c0,0,0.6,0,1.8-0.1c5.9-0.2,7.8,1.9,7.8,7.8V34.4z M142.4,1
			c-10.5,0.4-21,0.9-31.5,1.5v7.7c1.4-0.1,2.7-0.2,4.1-0.2v68.9c-1.4,0.1-2.7,0.2-4.1,0.2v7.7c8.2-0.5,16.3-0.9,24.5-1.2v-7.7
			c-1.3,0.1-2.7,0.1-4,0.2V50.3c2.2,0,4.5,0,6.7,0c14.1-0.5,18.9-3.9,18.9-15.5V13.1C157,4.7,152,0.7,142.4,1"/>
	</g>
	<polygon points="110.5,16.8 105.4,21.9 105.4,23.9 112.5,16.8 	"/>
	<polygon points="105.8,16.8 105.4,17.2 105.4,19.1 107.7,16.8 	"/>
	<polygon points="105.6,93.4 105.4,93.5 105.4,95.5 107.5,93.4 	"/>
	<polygon points="128.5,101 129.9,99.6 129.9,97.6 126.5,101 	"/>
	<g>
		<path d="M125.9,88.1c-0.3,0-0.5,0-0.8,0L112.2,101h2l11.7-11.7V88.1z"/>
	</g>
	<polygon points="121.8,101 123.7,101 129.9,94.8 129.9,93.4 129.4,93.4 	"/>
	<polygon points="125.9,93.4 125.9,92.1 117,101 119,101 126.6,93.4 	"/>
	<g>
		<path d="M150.6,57.8l-6.8,6.8C147.5,63.4,149.6,61.3,150.6,57.8"/>
		<path d="M140.2,65.5l11.1-11.1c0.1-0.7,0.1-1.4,0.1-2.1L138,65.7C138.8,65.7,139.5,65.6,140.2,65.5"/>
	</g>
	<polygon points="112.8,33.6 109.6,36.9 109.6,38.9 112.8,35.6 	"/>
	<polygon points="134.4,16.8 133.6,17.7 133.6,19.6 136.4,16.8 	"/>
	<polygon points="112.8,24.1 109.6,27.4 109.6,29.3 112.8,26.1 	"/>
	<polygon points="112.8,28.9 109.6,32.1 109.6,34.1 112.8,30.8 	"/>
	<polygon points="112.8,38.4 109.6,41.7 109.6,43.6 112.8,40.4 	"/>
	<polygon points="112.8,43.2 109.6,46.4 109.6,48.4 112.8,45.1 	"/>
	<polygon points="112.8,47.9 109.6,51.2 109.6,53.2 112.8,49.9 	"/>
	<polygon points="135.5,36.8 138.8,33.5 138.8,31.5 135.5,34.9 	"/>
	<polygon points="133.6,24.4 138.8,19.2 138.8,17.2 133.6,22.4 	"/>
	<g>
		<path d="M135.5,40.6c0.6-0.2,1.2-0.4,1.6-0.6l1-1c0.4-0.7,0.6-1.5,0.7-2.6l-3.2,3.2V40.6z"/>
		<path d="M134.9,27.9l3.9-3.9v-2l-4.5,4.5C134.5,26.9,134.7,27.4,134.9,27.9"/>
		<path d="M135.5,32l3.3-3.3v-2l-3.4,3.4C135.4,30.7,135.5,31.4,135.5,32"/>
		<path d="M133.6,65.9c0.5,0,1,0,1.4,0l15.3-15.3c-0.9,0.3-1.8,0.6-2.8,0.8l-14,14V65.9z"/>
		<path d="M136.9,52.5l-3.3,3.3v2l5.4-5.4c-0.2,0-0.5,0-0.7,0C137.8,52.5,137.3,52.5,136.9,52.5"/>
		<path d="M133.6,62.6L144.1,52c-0.7,0.1-1.4,0.2-2.2,0.2l-8.4,8.4V62.6z"/>
		<path d="M109.6,91.3l2.5-2.5c-0.4,0-0.7,0-1.1,0.1l-1,0.1l-0.5,0.5V91.3z"/>
	</g>
	<polygon points="112.8,52.7 109.6,56 109.6,57.9 112.8,54.7 	"/>
	<g>
		<path d="M115.1,88.7l-9.6,9.6v2l11.7-11.7C116.4,88.6,115.8,88.6,115.1,88.7"/>
	</g>
	<polygon points="112.8,19.3 107.7,24.5 109.6,24.5 109.6,24.6 112.8,21.3 	"/>
	<polygon points="112.8,67 109.6,70.3 109.6,72.3 112.8,69 	"/>
	<polygon points="112.8,57.5 109.6,60.8 109.6,62.7 112.8,59.4 	"/>
	<polygon points="112.8,62.2 109.6,65.5 109.6,67.5 112.8,64.2 	"/>
	<polygon points="112.8,71.8 109.6,75.1 109.6,76.9 109.6,77 109.7,76.9 112.8,73.8 	"/>
	<g>
		<path d="M120.1,88.4L107.5,101h2l12.7-12.7C121.5,88.3,120.8,88.3,120.1,88.4"/>
		<path d="M231.3,8.4c1.4,0,2.8,0.1,4.1,0.1v68.9c-1.4,0-2.8-0.1-4.1-0.1v7.7c8.2,0.2,16.4,0.4,24.5,0.7v-7.7c-1.3,0-2.7-0.1-4-0.1
			V8.9c1.3,0,2.7,0.1,4,0.1V1.4c-8.2-0.3-16.3-0.5-24.5-0.7V8.4z"/>
	</g>
	<polygon points="233.2,17.9 233.2,17.3 231.9,17.3 226,23.2 226,25 226.2,25 	"/>
	<polygon points="227.1,17.3 226,18.4 226,20.4 229.1,17.3 	"/>
	<polygon points="226.1,93.4 226,93.5 226,95.4 228.1,93.4 	"/>
	<polygon points="246.5,87.5 246.5,87.3 246.3,87.5 232.8,101 234.7,101 246.5,89.3 	"/>
	<polygon points="246.5,93.4 246.5,92.1 237.5,101 239.5,101 247.2,93.4 	"/>
	<polygon points="242.3,101 244.3,101 250.5,94.8 250.5,93.4 250,93.4 	"/>
	<polygon points="249,101 250.5,99.6 250.5,97.6 247.1,101 	"/>
	<polygon points="233.2,39.8 230.1,42.9 230.1,44.9 233.2,41.7 	"/>
	<polygon points="233.2,44.6 230.1,47.7 230.1,49.6 233.2,46.5 	"/>
	<polygon points="233.2,49.3 230.1,52.5 230.1,54.4 233.2,51.3 	"/>
	<polygon points="233.2,54.1 230.1,57.2 230.1,59.2 233.2,56.1 	"/>
	<polygon points="233.2,25.5 230.1,28.6 230.1,30.6 233.2,27.4 	"/>
	<polygon points="233.2,35 230.1,38.1 230.1,40.1 233.2,37 	"/>
	<polygon points="233.2,30.2 230.1,33.4 230.1,35.3 233.2,32.2 	"/>
	<g>
		<path d="M237,87.2l-11,11v2l12.9-12.9C238.3,87.3,237.7,87.2,237,87.2"/>
	</g>
	<polygon points="233.2,20.7 229,25 230.1,25 230.1,25.8 233.2,22.7 	"/>
	<g>
		<path d="M241.7,87.3L228,101h2l13.6-13.6C243,87.4,242.3,87.4,241.7,87.3"/>
	</g>
	<polygon points="233.2,63.6 230.1,66.8 230.1,68.7 233.2,65.6 	"/>
	<g>
		<path d="M234.3,87.2c-0.6,0-1.3,0-1.9,0l-2.2,2.2v2L234.3,87.2z"/>
	</g>
	<polygon points="233.2,58.9 230.1,62 230.1,64 233.2,60.8 	"/>
	<polygon points="230.1,73.5 233.2,70.4 233.2,68.4 230.1,71.5 	"/>
	<g>
		<path d="M303.8,52.6c-2.9-16.6-5.8-33.2-8.7-49.8c-8.7-0.5-17.4-1-26-1.4v7.7c1.4,0.1,2.8,0.1,4.1,0.2v68.9
			c-1.4-0.1-2.8-0.1-4.1-0.2v7.6c5.3,0.2,10.5,0.5,15.8,0.8v-7.7c-1.4-0.1-2.8-0.1-4.1-0.2V7.1c5.2,26.6,10.4,53.3,15.7,80
			c2.3,0.1,4.6,0.3,6.8,0.4c5.3-26,10.7-52,16-78c-0.2,23.8-0.4,47.6-0.6,71.4c-1.3-0.1-2.7-0.2-4-0.3v7.6c8,0.6,15.9,1.2,23.9,1.9
			v-7.7c-1.4-0.1-2.7-0.2-4.1-0.4V13.4c1.4,0.1,2.7,0.2,4.1,0.4V6.1c-8.3-0.7-16.6-1.4-25-2C310.4,20.3,307.1,36.4,303.8,52.6"/>
		<path d="M276.2,88.2c-0.2,0-0.3,0-0.5,0l-11.2,11.2v1.7h0.3l11.4-11.4V88.2z"/>
		<path d="M273.1,88c-0.6,0-1.2-0.1-1.9-0.1l-2.5,2.5v2L273.1,88z"/>
	</g>
	<polygon points="272.5,101 274.4,101 280.4,95.1 280.4,93.4 280.1,93.4 	"/>
	<polygon points="276.2,93.4 276.2,92.5 267.7,101 269.6,101 277.3,93.4 	"/>
	<polygon points="265.8,93.4 264.6,94.6 264.6,96.5 267.8,93.4 	"/>
	<polygon points="279.2,101 280.4,99.8 280.4,97.9 277.2,101 	"/>
	<polygon points="271,16.8 269.6,16.8 264.6,21.9 264.6,23.9 271,17.4 	"/>
	<polygon points="264.9,16.8 264.6,17.1 264.6,19.1 266.8,16.8 	"/>
	<polygon points="291.9,101 292.4,101 300.3,93.1 300.8,90.6 291.7,99.8 	"/>
	<polygon points="297.1,101 299.1,99 299.6,96.6 295.2,101 	"/>
	<polygon points="329.9,93.4 329.9,93.4 322.3,101 324.2,101 331.9,93.4 	"/>
	<polygon points="329,101 334,96 334,94 327,101 	"/>
	<polygon points="333.8,101 334,100.7 334,98.8 331.8,101 	"/>
	<polygon points="310.1,94.1 310.1,96 312.8,93.4 310.8,93.4 	"/>
	<g>
		<path d="M282.9,53.2l3.9-3.9c-0.1-0.5-0.2-1.1-0.3-1.6l-3.6,3.6V53.2z"/>
		<path d="M287.6,53.3c-0.1-0.5-0.2-1.1-0.3-1.6L283,56l0.3,1.6L287.6,53.3z"/>
		<path d="M289.2,61.3c-0.1-0.5-0.2-1.1-0.3-1.6l-4.3,4.3l0.3,1.6L289.2,61.3z"/>
		<path d="M288.4,57.3c-0.1-0.5-0.2-1.1-0.3-1.6l-4.3,4.3l0.3,1.6L288.4,57.3z"/>
		<path d="M282.9,48.5l3.1-3.1c-0.1-0.5-0.2-1.1-0.3-1.6l-2.8,2.8V48.5z"/>
		<path d="M290.4,67.6l-4.3,4.3l0.3,1.6l4.3-4.3C290.6,68.7,290.5,68.2,290.4,67.6"/>
		<path d="M282.9,43.7l2.3-2.3c-0.1-0.5-0.2-1.1-0.3-1.6l-2,2V43.7z"/>
		<path d="M289.6,63.6l-4.3,4.3l0.3,1.6l4.3-4.3C289.8,64.7,289.7,64.2,289.6,63.6"/>
		<path d="M282.9,36.9v2l1.5-1.5c-0.1-0.5-0.2-1.1-0.3-1.6L282.9,36.9z"/>
		<path d="M316.9,36.4l-1.1,1.1c-0.2,0.8-0.3,1.6-0.5,2.5l1.6-1.6L316.9,36.4z"/>
	</g>
	<polygon points="314.4,64.7 316.7,62.4 316.7,60.4 314.4,62.7 	"/>
	<polygon points="314.3,69.5 316.6,67.2 316.6,65.3 314.4,67.5 	"/>
	<polygon points="314.3,74.3 316.6,72 316.6,70.1 314.3,72.3 	"/>
	<polygon points="314.3,78.5 314.8,78.5 314.9,78.5 316.5,76.9 316.6,74.9 314.3,77.2 	"/>
	<polygon points="314.5,50.3 316.8,48 316.8,46 314.5,48.3 	"/>
	<polygon points="271,25 268.7,27.3 268.7,29.3 271,26.9 	"/>
	<polygon points="314.4,59.9 316.7,57.6 316.7,55.6 314.4,57.9 	"/>
	<polygon points="314.5,45.5 316.8,43.2 316.8,41.2 314.6,43.5 	"/>
	<g>
		<path d="M314.2,92l1.4-1.4c-0.4,0-0.7-0.1-1.1-0.1l-0.3,0L314.2,92z"/>
	</g>
	<polygon points="314.5,55.1 316.7,52.8 316.8,50.8 314.5,53.1 	"/>
	<g>
		<path d="M291.2,71.6l-4.3,4.3l0.3,1.6l4.3-4.3C291.4,72.7,291.3,72.2,291.2,71.6"/>
		<path d="M292,75.6l-4.3,4.3l0.3,1.6l4.2-4.2C292.2,76.7,292.1,76.2,292,75.6"/>
		<path d="M292.7,79.6l-4.2,4.2l0.3,1.6l4.2-4.2C293,80.7,292.9,80.2,292.7,79.6"/>
	</g>
	<polygon points="271,20.2 266.8,24.5 268.7,24.5 268.7,24.5 271,22.2 	"/>
	<g>
		<path d="M293.5,83.6l-4.2,4.2l0.3,1.6l4.2-4.2C293.7,84.7,293.6,84.1,293.5,83.6"/>
		<path d="M327,91.5l-9.6,9.5h2l9.4-9.4C328.2,91.6,327.6,91.5,327,91.5"/>
		<path d="M322.6,91.1l-9.9,9.9h2l9.8-9.8C323.8,91.2,323.2,91.2,322.6,91.1"/>
	</g>
	<polygon points="294.6,89.2 294.3,87.6 290.1,91.8 290.4,93.5 294.7,89.2 	"/>
	<g>
		<path d="M310.1,100.8l9.9-9.9c-0.6,0-1.2-0.1-1.8-0.1l-8,8V100.8z"/>
		<path d="M297.3,89.3l-6.5,6.5l0.3,1.6l8-8C298.6,89.4,297.9,89.4,297.3,89.3"/>
	</g>
	<polygon points="271,29.8 268.7,32.1 268.7,34.1 271,31.7 	"/>
	<polygon points="271,48.8 268.7,51.2 268.7,53.1 271,50.8 	"/>
	<polygon points="271,53.6 268.7,55.9 268.7,57.9 271,55.6 	"/>
	<polygon points="271,34.5 268.7,36.9 268.7,38.8 271,36.5 	"/>
	<polygon points="271,39.3 268.7,41.6 268.7,43.6 271,41.3 	"/>
	<polygon points="271,44.1 268.7,46.4 268.7,48.4 271,46 	"/>
	<polygon points="268.7,75.8 269.2,75.8 269.8,75.9 271,74.6 271,72.7 268.7,75 	"/>
	<polygon points="271,58.4 268.7,60.7 268.7,62.7 271,60.3 	"/>
	<polygon points="271,67.9 268.7,70.3 268.7,72.2 271,69.9 	"/>
	<polygon points="271,63.1 268.7,65.5 268.7,67.4 271,65.1 	"/>
	<polygon points="376.7,62 381,57.8 379.2,57.6 374.8,62 	"/>
	<polygon points="385.2,58.3 383.5,58.1 379.5,62 381.5,62 	"/>
	<g>
		<path d="M382.9,64v23.2c-3.2-0.4-6.5-0.8-9.7-1.1V54.8c2.7,0.3,5.3,0.6,8,0.9l1.8,0.2c0.8,0.1,1.7,0.2,2.5,0.3l0.9,0.1
			c0.8,0.1,1.5,0.2,2.2,0.3V46.2c-5.1-0.6-10.2-1.2-15.4-1.8V17.2c3.3,0.4,6.7,0.7,10,1.1v20.4c3.5,0.4,7,0.8,10.6,1.3V12
			c-13.6-1.7-27.3-3.2-41-4.6v7.7c1.4,0.1,2.7,0.3,4.1,0.4v68.9c-1.4-0.1-2.7-0.3-4.1-0.4v7.7c14.1,1.4,28.1,2.9,42.1,4.7V65.4
			C390.9,64.9,386.9,64.5,382.9,64"/>
		<path d="M389.3,44.1v-1.4l-1.2,1.2c0.2,0,0.5,0.1,0.7,0.1L389.3,44.1z"/>
	</g>
	<polygon points="348.4,16.8 348.2,17 348.2,19 350.4,16.8 	"/>
	<polygon points="352.8,17.3 348.2,21.8 348.2,23.8 354.6,17.4 	"/>
	<polygon points="390.2,101 390.5,100.7 390.5,98.8 388.3,101 	"/>
	<polygon points="348.2,93.4 348.2,95.3 350.2,93.4 	"/>
	<polygon points="380.6,70.2 378.6,70.2 378.3,70.5 378.3,72.4 	"/>
	<g>
		<path d="M383.5,40.9c-0.2,0-0.4-0.1-0.6-0.1l-1.1-0.1l-2.2,2.2c0.6,0.1,1.2,0.1,1.8,0.2L383.5,40.9z"/>
	</g>
	<polygon points="380.8,77.6 378.3,80 378.3,82 380.8,79.5 	"/>
	<g>
		<path d="M385.6,43.6l2.2-2.2c-0.6-0.1-1.2-0.1-1.7-0.2l-2.2,2.2C384.4,43.5,385,43.6,385.6,43.6"/>
	</g>
	<polygon points="354.7,44 352.4,46.3 352.4,48.3 354.7,45.9 	"/>
	<polygon points="354.7,39.2 352.4,41.5 352.4,43.5 354.7,41.2 	"/>
	<polygon points="354.7,24.9 352.4,27.2 352.4,29.2 354.7,26.9 	"/>
	<polygon points="354.7,34.4 352.4,36.8 352.4,38.7 354.7,36.4 	"/>
	<polygon points="354.7,29.7 352.4,32 352.4,33.9 354.7,31.6 	"/>
	<polygon points="380.8,72.8 378.3,75.2 378.3,77.2 380.8,74.8 	"/>
	<polygon points="381,36.7 378.7,39 378.7,41 381,38.7 	"/>
	<g>
		<path d="M375.4,23.3v1.2h0.8l4.3-4.3c-0.6-0.1-1.2-0.1-1.8-0.2L375.4,23.3z"/>
		<path d="M380.8,84.3v-2l-2.2,2.2c0.6,0.1,1.2,0.1,1.8,0.2L380.8,84.3z"/>
		<path d="M375.4,58.7l1.3-1.3c-0.4,0-0.9-0.1-1.3-0.2V58.7z"/>
	</g>
	<polygon points="381,22.4 378.7,24.7 378.7,26.7 381,24.4 	"/>
	<polygon points="378.7,36.2 381,33.9 381,32 378.7,34.2 	"/>
	<polygon points="381,27.2 378.7,29.5 378.7,31.4 381,29.2 	"/>
	<g>
		<path d="M369.9,95.6l-5.5,5.5h2l5.3-5.3C371.1,95.7,370.5,95.6,369.9,95.6"/>
	</g>
	<polygon points="354.7,48.7 352.4,51.1 352.4,53 354.7,50.7 	"/>
	<g>
		<path d="M361.2,94.7l-6.4,6.4h2l6.2-6.2C362.4,94.8,361.8,94.7,361.2,94.7"/>
		<path d="M374.2,96l-5,5h2l4.8-4.8C375.4,96.2,374.8,96.1,374.2,96"/>
		<path d="M356.9,94.2l-6.8,6.8h2l6.6-6.6C358.1,94.3,357.5,94.3,356.9,94.2"/>
		<path d="M387,97.5l-3.5,3.5h2l3.3-3.3C388.2,97.7,387.6,97.6,387,97.5"/>
		<path d="M382.7,97l-4,4h2l3.8-3.8C383.9,97.2,383.3,97.1,382.7,97"/>
		<path d="M378.5,96.5L374,101h2l4.3-4.3C379.6,96.7,379,96.6,378.5,96.5"/>
		<path d="M365.6,95.1l-5.9,5.9h2l5.7-5.7C366.7,95.2,366.2,95.2,365.6,95.1"/>
	</g>
	<polygon points="354.7,63.1 352.4,65.4 352.4,67.3 354.7,65 	"/>
	<polygon points="354.7,58.3 352.4,60.6 352.4,62.6 354.7,60.2 	"/>
	<g>
		<path d="M352.6,93.8l-4.4,4.4v2l6.1-6.1C353.8,93.9,353.2,93.8,352.6,93.8"/>
	</g>
	<polygon points="354.7,67.8 352.4,70.1 352.4,72.1 354.7,69.8 	"/>
	<polygon points="354.7,53.5 352.4,55.8 352.4,57.8 354.7,55.5 	"/>
	<polygon points="354.7,20.1 350.3,24.5 352.3,24.5 354.7,22.1 	"/>
	<polygon points="354.7,72.6 352.4,74.9 352.4,76.9 354.7,74.6 	"/>
	<polygon points="352.4,81.6 354.7,79.3 354.7,77.4 352.4,79.7 	"/>
	<polygon points="386.3,62 386.3,62 386.3,60 384.4,62 384.3,62 384.9,62 	"/>
	<g>
		<path d="M169.7,0.3v30.3c3.2-0.1,6.4-0.1,9.5-0.2V7.8c2.2,0,4.5-0.1,6.7-0.1v68.9c-2,0-4,0-6,0.1v7.6c6.8-0.1,13.5-0.1,20.3-0.1
			c2.7,0,5.4,0,8.1,0v-7.7c-2,0-4,0-6,0V7.6c2.3,0,4.6,0,6.8,0v22.6c3.2,0,6.4,0,9.5,0.1V0.1C211.7,0,204.7,0,197.6,0
			C188.3,0,179,0.1,169.7,0.3"/>
	</g>
	<polygon points="196.8,86.3 196.8,85.6 196,86.3 181.3,101 183.3,101 196.8,87.5 	"/>
	<polygon points="174.4,93.6 174.4,95.6 176.6,93.4 174.6,93.4 	"/>
	<polygon points="196.8,90.3 186.1,101 188,101 196.8,92.3 	"/>
	<polygon points="202.4,101 202.8,100.6 202.8,98.6 200.4,101 	"/>
	<polygon points="197.6,101 202.8,95.8 202.8,93.9 195.6,101 	"/>
	<polygon points="198.5,93.4 190.9,101 192.8,101 200.5,93.4 	"/>
	<polygon points="169,47.1 173.7,42.4 173.7,40.4 167,47.1 	"/>
	<polygon points="173.7,47.1 173.7,45.2 171.8,47.1 	"/>
	<polygon points="211.9,47.1 213.1,45.9 213.1,43.9 210,47.1 	"/>
	<polygon points="204.5,45 213.1,36.4 213.1,34.4 204.5,43 	"/>
	<polygon points="207.2,47.1 213.1,41.1 213.1,39.2 205.2,47.1 	"/>
	<polygon points="164.2,16.8 164.2,18.5 165.9,16.8 	"/>
	<polygon points="164.2,47.1 164.2,47.1 173.7,37.6 173.7,35.7 164.2,45.2 	"/>
	<polygon points="180.4,45.2 183.8,41.8 183.8,39.9 180.4,43.3 	"/>
	<polygon points="180.4,50 183.8,46.6 183.8,44.7 180.4,48 	"/>
	<polygon points="183.8,16.8 183,16.8 181.4,18.4 181.4,20.4 183.8,18 	"/>
	<polygon points="180.4,35.7 183.8,32.3 183.8,30.3 180.4,33.7 	"/>
	<polygon points="181.4,25.1 183.8,22.8 183.8,20.8 181.4,23.2 	"/>
	<polygon points="181.4,29.9 183.8,27.5 183.8,25.6 181.4,28 	"/>
	<polygon points="180.4,54.8 183.8,51.4 183.8,49.4 180.4,52.8 	"/>
	<polygon points="180.4,73.8 183.8,70.5 183.8,68.5 180.4,71.9 	"/>
	<polygon points="180.4,69.1 183.8,65.7 183.8,63.7 180.4,67.1 	"/>
	<polygon points="180.4,59.5 183.8,56.2 183.8,54.2 180.4,57.6 	"/>
	<polygon points="180.4,64.3 183.8,60.9 183.8,59 180.4,62.3 	"/>
	<polygon points="180.4,40.5 183.8,37.1 183.8,35.1 180.4,38.5 	"/>
	<polygon points="167.5,32.7 167.5,32.3 164.2,35.7 164.2,37.6 169.1,32.7 	"/>
	<polygon points="167.5,27.5 164.2,30.9 164.2,32.9 167.5,29.5 	"/>
	<polygon points="167.5,22.8 164.2,26.1 164.2,28.1 167.5,24.7 	"/>
	<g>
		<path d="M164.2,40.4v2l9.5-9.5v-0.2c-0.6,0-1.2,0-1.8,0L164.2,40.4z"/>
	</g>
	<polygon points="167.5,18 164.2,21.4 164.2,23.3 167.5,20 	"/>
	<polygon points="204.5,35.4 207.5,32.4 207,32.4 207,31 204.5,33.5 	"/>
	<polygon points="204.5,25.9 207,23.4 207,21.4 204.5,23.9 	"/>
	<polygon points="204.5,30.6 207,28.1 207,26.2 204.5,28.7 	"/>
	<polygon points="207,16.8 206.8,16.8 204.5,19.1 204.5,21.1 207,18.6 	"/>
	<g>
		<path d="M204.5,40.2l7.7-7.7c-0.6,0-1.3,0-1.9,0l-5.8,5.8V40.2z"/>
		<path d="M180.4,87.6v2l3.1-3.1c-0.7,0-1.3,0-2,0L180.4,87.6z"/>
		<path d="M191.2,86.4L176.5,101h2l14.6-14.6C192.5,86.4,191.8,86.4,191.2,86.4"/>
		<path d="M174.4,100.3l13.9-13.9c-0.7,0-1.3,0-2,0l-6,6v1h-1l-5,5V100.3z"/>
	</g>
</g>
</svg>
